<?xml version="1.0" encoding="utf-8"?>
<!-- Generator: Adobe Illustrator 24.2.3, SVG Export Plug-In . SVG Version: 6.00 Build 0)  -->
<svg version="1.0" id="RabbitSVG_x5F_Layer" xmlns="http://www.w3.org/2000/svg" xmlns:xlink="http://www.w3.org/1999/xlink"
	 x="0px" y="0px" viewBox="0 0 220 320" style="enable-background:new 0 0 220 320;" xml:space="preserve">
<g id="RabbitSVG">
	<defs>
		<path id="MAIN-CLIP-PATH" d="M0,266.9c0,0-0.3,33.1,109.7,33.1S220,266.9,220,266.9V0H0.6L0,266.9z"/>
	</defs>
	<clipPath id="MAIN-CLIP-PATH_1_">
		<use xlink:href="#MAIN_x002D_CLIP_x002D_PATH"  style="overflow:visible;"/>
	</clipPath>
	<g id="Rabbit" style="clip-path:url(#MAIN-CLIP-PATH_1_);">
		<linearGradient id="holeMaterial_1_" gradientUnits="userSpaceOnUse" x1="110.0126" y1="243.6846" x2="110.0126" y2="315.9418">
			<stop  offset="0" style="stop-color:#662D91"/>
			<stop  offset="0.5054" style="stop-color:#1B1446"/>
		</linearGradient>
		<path id="holeMaterial" style="fill:url(#holeMaterial_1_);" d="M0,266.9c0,0,1.9-28.6,111.5-28.6S220,266.9,220,266.9l0,38H0
			V266.9z"/>
		<g id="head">
			<g id="ears">
				<g id="r_ear">
					<path id="_outsideEar" style="fill:#FFBAC6;" d="M149.7,185.7c0,0,23-35,31.5-66.4c8.5-31.4,1.5-65.8-18.3-67.7
						c-19.8-1.9-29.8,36-34.9,63.4c-5.1,27.4-4.7,68.6-0.7,68.9L149.7,185.7z"/>
					<path id="r_insideEar" style="fill:#FFD9E1;" d="M169.4,121c5.9-24.7,1.2-45.6-8.8-46.6c-10-1-20.8,22.4-24.8,43.9
						c-2.4,12.4-3.3,25-2.6,37.5c0.1,9.4,10.1,14.1,19.9,2.9C160.6,150.3,166.7,131.9,169.4,121z"/>
				</g>
				<g id="l_ear">
					<path id="l_outsideEar" style="fill:#FFBAC6;" d="M69.8,185.8c0,0-22.9-35.1-31.4-66.5s-1.6-65.9,18.1-67.8S86.2,87.6,91.2,115
						c5.1,27.4,4.8,68.7,0.8,69L69.8,185.8z"/>
					<path id="l_inside_ear" style="fill:#FFD9E1;" d="M50,121c-5.9-24.7-1.2-45.6,8.8-46.6s20.8,22.4,24.8,43.9
						c2.4,12.4,3.3,25,2.6,37.5c-0.1,9.4-10.1,14.1-19.9,2.9C58.7,150.3,52.6,131.9,50,121z"/>
				</g>
			</g>
			<g id="body_x5F_grp">
				<path id="chest_x5F_dark" style="fill:#FFBAC6;" d="M119.3,405.4H99.7c-31.6,0-57.5-25.9-57.5-57.5v-0.4
					c0-31.6,25.9-57.5,57.5-57.5h19.6c31.6,0,57.5,25.9,57.5,57.5v0.4C176.8,379.6,150.9,405.4,119.3,405.4z"/>
				<path id="chest_1_" style="fill:#FFD9E1;" d="M119.4,393.4H99.6c-21.9,0-39.8-17.9-39.8-39.8v-11.6c0-21.9,17.9-39.8,39.8-39.8
					h19.8c21.9,0,39.8,17.9,39.8,39.8v11.6C159.3,375.5,141.3,393.4,119.4,393.4z"/>
				
					<radialGradient id="head_x5F_shape_1_" cx="149.2209" cy="164.3645" r="82.9415" gradientTransform="matrix(0.9973 0 0 1.0033 0 0)" gradientUnits="userSpaceOnUse">
					<stop  offset="0" style="stop-color:#FFD9E1"/>
					<stop  offset="1" style="stop-color:#FFBAC6"/>
				</radialGradient>
				<path id="head_x5F_shape" style="fill:url(#head_x5F_shape_1_);" d="M109.7,143.4c42.3,0,76.5,17.2,76.5,75.5
					c0,80.2-49,77.2-76.2,77.2s-76.9,0.1-76.9-77.2C33.1,160.5,67.4,143.4,109.7,143.4z"/>
			</g>
			<g id="mouth_x5F_grp">
				<g id="teeth" transform="translate(0 -3)">
					
						<image style="overflow:visible;opacity:0.75;" width="60" height="46" xlink:href="8F9F1D8B.png"  transform="matrix(1 0 0 1 81 253)">
					</image>
					<g>
						<g>
							<path id="r_x5F_tooth_12_" style="fill:#FFFFFF;" d="M95.8,276.9c0,2.8,2.6,5,5.9,5l0,0h7.8v-15H95.8V276.9z"/>
							<path id="l_x5F_tooth_12_" style="fill:#FFFFFF;" d="M110.8,266.9v15h7.2c3.6,0,6.5-2.5,6.5-5.6v0v-9.5H110.8z"/>
						</g>
					</g>
				</g>
				<path id="mouth" style="fill:#FFBAC6;stroke:#000000;stroke-width:2;stroke-linecap:round;" d="M50.5,249.2
					c0,8.5,23,16.6,59.5,16.6s59.5-8,59.5-16.6"/>
				
					<line id="nose_x5F_line" style="fill:none;stroke:#000000;stroke-width:2;stroke-miterlimit:10;" x1="110" y1="265.8" x2="109.9" y2="247.8"/>
			</g>
			<g id="eyes_x5F_base">
				<ellipse id="l_x5F_eye_x5F_pink" style="fill:#FFBAC6;" cx="141.6" cy="202.9" rx="27.8" ry="37.9"/>
				<ellipse id="r_x5F_eye_x5F_pink_1_" style="fill:#FFBAC6;" cx="76.2" cy="202.9" rx="26.4" ry="37.9"/>
				<ellipse id="l_x5F_eye_x5F_white" style="fill:#FFFFFF;" cx="141.6" cy="202.9" rx="27.8" ry="37.9"/>
				<ellipse id="r_x5F_eye_x5F_white" style="fill:#FFFFFF;" cx="76.2" cy="202.9" rx="26.4" ry="37.9"/>
			</g>
			<g id="eyes_x5F_inside">
				<g id="l_x5F_eye_x5F_clipping-group">
					<defs>
						<ellipse id="L-EYE-CLIP-PATH" cx="141.6" cy="202.9" rx="27.8" ry="37.9"/>
					</defs>
					<clipPath id="L-EYE-CLIP-PATH_1_">
						<use xlink:href="#L_x002D_EYE_x002D_CLIP_x002D_PATH"  style="overflow:visible;"/>
					</clipPath>
					<g id="l_x5F_eye_x5F_clip-grp" style="clip-path:url(#L-EYE-CLIP-PATH_1_);">
						<ellipse id="l_x5F_iris" style="fill:#3FA9F5;" cx="141.8" cy="202.9" rx="20.9" ry="21.1"/>
						<ellipse id="l_x5F_pupil" cx="141.8" cy="202.9" rx="12" ry="12"/>
						<path id="l_x5F_star" style="fill:#FFFFFF;" d="M138.1,194.5c0,5.1,1.2,5.3,4.7,5.6c-3.5,0.1-4.6,1.5-4.7,5.6
							c0-4-1.8-5.5-4.7-5.6C136.6,199.8,138.1,199.8,138.1,194.5z"/>
					</g>
				</g>
				<g id="r_x5F_eye_x5F_clipping-group">
					<defs>
						<ellipse id="R-EYE-CLIP-PATH" cx="76.2" cy="202.9" rx="26.4" ry="37.9"/>
					</defs>
					<clipPath id="R-EYE-CLIP-PATH_1_">
						<use xlink:href="#R_x002D_EYE_x002D_CLIP_x002D_PATH"  style="overflow:visible;"/>
					</clipPath>
					<g id="r_x5F_eye_x5F_clip-grp" style="clip-path:url(#R-EYE-CLIP-PATH_1_);">
						<ellipse id="r_x5F_iris" style="fill:#3FA9F5;" cx="75.6" cy="202.9" rx="19.9" ry="20.1"/>
						<ellipse id="r_x5F_pupil" cx="75.6" cy="202.9" rx="12" ry="12"/>
						<path id="r_x5F_star" style="fill:#FFFFFF;" d="M70.2,194.5c0,5.1,1.2,5.3,4.7,5.6c-3.5,0.1-4.6,1.5-4.7,5.6
							c0-4-1.8-5.5-4.7-5.6C68.8,199.8,70.3,199.8,70.2,194.5z"/>
					</g>
				</g>
			</g>
			<ellipse id="nose" cx="109.9" cy="237.8" rx="10" ry="10"/>
		</g>
		<g id="hands">
			<g id="palms">
				<g id="l_x5F_palm">
					<path id="l_x5F_palm_x5F_outside" style="fill:#FFBAC6;" d="M167.5,286.4c15.4,1.5,26.5,12.9,24.8,25.7
						c-1.7,12.7-15.6,21.8-31.1,20.4c-15.4-1.5-26.5-12.9-24.8-25.7C138.2,294.1,152.1,285,167.5,286.4z"/>
					<path id="l_x5F_palm_x5F_inside" style="fill:#FFD9E1;" d="M166.2,295.7c9.2,0.9,15.9,7.7,14.9,15.4c-1,7.6-9.4,13.1-18.6,12.2
						c-9.2-0.9-15.9-7.8-14.9-15.4S157,294.8,166.2,295.7z"/>
				</g>
				<g id="r_x5F_palm">
					<path id="r_x5F_palm_x5F_outside" style="fill:#FFBAC6;" d="M82.6,306.8c1.7,12.7-9.4,24.2-24.8,25.7
						c-15.4,1.5-29.3-7.7-31.1-20.4s9.4-24.2,24.8-25.7S80.9,294.1,82.6,306.8z"/>
					<path id="r_x5F_palm_x5F_inside" style="fill:#FFD9E1;" d="M71.5,307.9c1,7.6-5.6,14.5-14.9,15.4c-9.2,0.9-17.6-4.6-18.6-12.2
						c-1-7.6,5.6-14.5,14.9-15.4S70.5,300.3,71.5,307.9z"/>
				</g>
			</g>
			<g id="l_x5F_hand_1_">
				<g id="r_x5F_finger_x5F_3">
					
						<image style="overflow:visible;opacity:0.75;" width="57" height="64" xlink:href="8F9F1D89.png"  transform="matrix(1 0 0 1 163 248)">
					</image>
					<g>
						<path style="fill:#FFBAC6;" d="M187.3,261.9c6.8-1.4,13.7,4.6,15.5,13.5c1.8,8.8-2.3,17.1-9,18.5s-13.7-4.6-15.5-13.5
							S180.6,263.3,187.3,261.9z"/>
					</g>
				</g>
				<g id="r_x5F_finger_x5F_2">
					
						<image style="overflow:visible;opacity:0.75;" width="56" height="63" xlink:href="8F9F1D8F.png"  transform="matrix(1 0 0 1 142 253)">
					</image>
					<g>
						<path style="fill:#FFBAC6;" d="M165.7,266.3c6.8-1.4,13.7,4.6,15.5,13.5c1.8,8.8-2.3,17.1-9,18.5c-6.8,1.4-13.7-4.6-15.5-13.5
							C154.9,276,158.9,267.7,165.7,266.3z"/>
					</g>
				</g>
				<g id="r_x5F_finger_x5F_1_1_">
					
						<image style="overflow:visible;opacity:0.75;" width="57" height="64" xlink:href="8F9F1D88.png"  transform="matrix(1 0 0 1 119 257)">
					</image>
					<g>
						<path style="fill:#FFBAC6;" d="M143.7,270.9c7-1.4,14.1,4.6,15.9,13.4c1.8,8.8-2.4,17.1-9.4,18.6c-7,1.4-14.1-4.6-15.9-13.4
							C132.5,280.6,136.7,272.3,143.7,270.9z"/>
					</g>
				</g>
			</g>
			<g id="r_x5F_hand">
				<g id="l_x5F_finger_x5F_3">
					
						<image style="overflow:visible;opacity:0.75;" width="57" height="64" xlink:href="8F9F1D86.png"  transform="matrix(1 0 0 1 -1 248)">
					</image>
					<g>
						<path style="fill:#FFBAC6;" d="M29.3,262.1c7,1.4,11.2,9.7,9.5,18.5S30,295.5,23,294.1s-11.2-9.7-9.5-18.5
							C15.2,266.8,22.3,260.7,29.3,262.1z"/>
					</g>
				</g>
				<g id="l_x5F_finger_x5F_2">
					
						<image style="overflow:visible;opacity:0.75;" width="56" height="63" xlink:href="8F9F1D87.png"  transform="matrix(1 0 0 1 21 253)">
					</image>
					<g>
						<path style="fill:#FFBAC6;" d="M51.3,266.5c6.8,1.3,10.9,9.6,9.2,18.4s-8.6,14.9-15.4,13.6c-6.8-1.3-10.9-9.6-9.2-18.4
							C37.6,271.2,44.5,265.1,51.3,266.5z"/>
					</g>
				</g>
				<g id="l_x5F_finger_x5F_1">
					
						<image style="overflow:visible;opacity:0.75;" width="56" height="63" xlink:href="8F9F1D97.png"  transform="matrix(1 0 0 1 43 257)">
					</image>
					<g>
						<path style="fill:#FFBAC6;" d="M72.9,270.8c6.8,1.3,10.9,9.6,9.2,18.4c-1.7,8.8-8.6,14.9-15.4,13.6s-10.9-9.6-9.2-18.4
							C59.3,275.5,66.2,269.4,72.9,270.8z"/>
					</g>
				</g>
			</g>
		</g>
	</g>
</g>
</svg>
